# Blender v2.79 (sub 0) OBJ File: ''
# www.blender.org
mtllib cylinder.mtl
o Cylinder
v 2.486408 -1.043880 -3.621175
v -2.628462 -1.040934 -3.586689
v 2.485104 -1.024665 -3.816261
v -2.629766 -1.021719 -3.781775
v 2.483872 -0.967759 -4.003850
v -2.630998 -0.964813 -3.969364
v 2.482760 -0.875349 -4.176733
v -2.632111 -0.872403 -4.142247
v 2.481810 -0.750986 -4.328267
v -2.633061 -0.748040 -4.293780
v 2.481059 -0.599450 -4.452628
v -2.633812 -0.596504 -4.418141
v 2.480535 -0.426563 -4.545036
v -2.634336 -0.423617 -4.510550
v 2.480259 -0.238970 -4.601941
v -2.634611 -0.236024 -4.567455
v 2.480242 -0.043879 -4.621156
v -2.634628 -0.040933 -4.586670
v 2.480484 0.151211 -4.601943
v -2.634386 0.154157 -4.567456
v 2.480976 0.338804 -4.545039
v -2.633895 0.341750 -4.510552
v 2.481699 0.511691 -4.452632
v -2.633172 0.514637 -4.418145
v 2.482624 0.663228 -4.328272
v -2.632246 0.666174 -4.293786
v 2.483718 0.787591 -4.176740
v -2.631153 0.790537 -4.142253
v 2.484936 0.880001 -4.003857
v -2.629934 0.882947 -3.969371
v 2.486234 0.936907 -3.816268
v -2.628637 0.939853 -3.781782
v 2.487561 0.956121 -3.621182
v -2.627310 0.959067 -3.586696
v 2.488865 0.936906 -3.426096
v -2.626006 0.939853 -3.391610
v 2.490097 0.880001 -3.238507
v -2.624774 0.882947 -3.204021
v 2.491209 0.787591 -3.065624
v -2.623661 0.790537 -3.031138
v 2.492159 0.663227 -2.914090
v -2.622711 0.666174 -2.879604
v 2.492910 0.511691 -2.789730
v -2.621960 0.514637 -2.755244
v 2.493434 0.338804 -2.697321
v -2.621437 0.341750 -2.662835
v 2.493710 0.151210 -2.640417
v -2.621161 0.154156 -2.605930
v 2.493727 -0.043880 -2.621202
v -2.621144 -0.040934 -2.586715
v 2.493485 -0.238971 -2.640415
v -2.621386 -0.236025 -2.605929
v 2.492993 -0.426564 -2.697319
v -2.621877 -0.423618 -2.662833
v 2.492270 -0.599451 -2.789727
v -2.622600 -0.596505 -2.755240
v 2.491345 -0.750987 -2.914086
v -2.623526 -0.748041 -2.879600
v 2.490251 -0.875350 -3.065619
v -2.624619 -0.872404 -3.031133
v 2.489033 -0.967760 -3.238502
v -2.625838 -0.964814 -3.204015
v 2.487735 -1.024665 -3.426091
v -2.627136 -1.021719 -3.391604
vn -0.0012 -0.9952 -0.0980
vn -0.0025 -0.9569 -0.2903
vn -0.0037 -0.8819 -0.4714
vn -0.0047 -0.7730 -0.6344
vn -0.0056 -0.6344 -0.7730
vn -0.0062 -0.4714 -0.8819
vn -0.0066 -0.2903 -0.9569
vn -0.0068 -0.0980 -0.9952
vn -0.0067 0.0980 -0.9952
vn -0.0063 0.2903 -0.9569
vn -0.0057 0.4714 -0.8819
vn -0.0048 0.6344 -0.7730
vn -0.0038 0.7730 -0.6344
vn -0.0027 0.8819 -0.4714
vn -0.0014 0.9569 -0.2903
vn -0.0001 0.9952 -0.0980
vn 0.0012 0.9952 0.0980
vn 0.0025 0.9569 0.2903
vn 0.0037 0.8819 0.4714
vn 0.0047 0.7730 0.6344
vn 0.0056 0.6344 0.7730
vn 0.0062 0.4714 0.8819
vn 0.0066 0.2903 0.9569
vn 0.0068 0.0980 0.9952
vn 0.0067 -0.0980 0.9952
vn 0.0063 -0.2903 0.9569
vn 0.0057 -0.4714 0.8819
vn 0.0048 -0.6344 0.7730
vn 0.0038 -0.7730 0.6344
vn 0.0027 -0.8819 0.4714
vn -1.0000 0.0006 0.0067
vn 0.0014 -0.9569 0.2903
vn 0.0001 -0.9952 0.0980
vn 1.0000 -0.0006 -0.0067
usemtl None
s off
f 1//1 2//1 4//1 3//1
f 3//2 4//2 6//2 5//2
f 5//3 6//3 8//3 7//3
f 7//4 8//4 10//4 9//4
f 9//5 10//5 12//5 11//5
f 11//6 12//6 14//6 13//6
f 13//7 14//7 16//7 15//7
f 15//8 16//8 18//8 17//8
f 17//9 18//9 20//9 19//9
f 19//10 20//10 22//10 21//10
f 21//11 22//11 24//11 23//11
f 23//12 24//12 26//12 25//12
f 25//13 26//13 28//13 27//13
f 27//14 28//14 30//14 29//14
f 29//15 30//15 32//15 31//15
f 31//16 32//16 34//16 33//16
f 33//17 34//17 36//17 35//17
f 35//18 36//18 38//18 37//18
f 37//19 38//19 40//19 39//19
f 39//20 40//20 42//20 41//20
f 41//21 42//21 44//21 43//21
f 43//22 44//22 46//22 45//22
f 45//23 46//23 48//23 47//23
f 47//24 48//24 50//24 49//24
f 49//25 50//25 52//25 51//25
f 51//26 52//26 54//26 53//26
f 53//27 54//27 56//27 55//27
f 55//28 56//28 58//28 57//28
f 57//29 58//29 60//29 59//29
f 59//30 60//30 62//30 61//30
f 4//31 2//31 64//31 62//31 60//31 58//31 56//31 54//31 52//31 50//31 48//31 46//31 44//31 42//31 40//31 38//31 36//31 34//31 32//31 30//31 28//31 26//31 24//31 22//31 20//31 18//31 16//31 14//31 12//31 10//31 8//31 6//31
f 61//32 62//32 64//32 63//32
f 63//33 64//33 2//33 1//33
f 1//34 3//34 5//34 7//34 9//34 11//34 13//34 15//34 17//34 19//34 21//34 23//34 25//34 27//34 29//34 31//34 33//34 35//34 37//34 39//34 41//34 43//34 45//34 47//34 49//34 51//34 53//34 55//34 57//34 59//34 61//34 63//34
